<svg width="56" height="56" viewBox="0 0 56 56" fill="none" xmlns="http://www.w3.org/2000/svg">
<rect width="56" height="56" rx="12" fill="url(#paint0_linear_2079_220)"/>
<path opacity="0.72" d="M5.74376 27.2596C7.54242 27.7784 9.41452 15.5349 11.3707 11.7038C13.3233 7.88302 21.5944 5.18574 21.7068 4.51351C21.8088 3.83769 9.50518 1.55584 6.01927 8.71161C2.51932 15.874 4.49618 26.897 5.74376 27.2596Z" fill="url(#paint1_linear_2079_220)"/>
<path opacity="0.72" d="M32.4835 49.8279C32.1813 48.4275 41.9516 47.7306 45.0904 46.4691C48.2208 45.2097 50.841 39.0721 51.378 39.0265C51.9172 38.989 52.9851 48.4936 47.1324 50.7221C41.2737 52.9609 32.6953 50.7995 32.4835 49.8279Z" fill="url(#paint2_linear_2079_220)"/>
<path d="M40.381 23.9411C40.584 23.9411 40.7362 24.0256 40.8376 24.1947C40.9729 24.33 41.0237 24.4992 40.9899 24.7021L40.6854 25.9198C40.584 26.2242 40.381 26.3764 40.0766 26.3764H39.0619C39.806 27.0191 40.1781 27.8309 40.1781 28.8118V31.2471C40.1781 32.0589 39.9075 32.7692 39.3663 33.3781V36.1178C39.3663 36.5576 39.1972 36.9465 38.8589 37.2848C38.5545 37.5892 38.1824 37.7414 37.7427 37.7414H36.1191C35.6794 37.7414 35.2904 37.5892 34.9522 37.2848C34.6478 36.9465 34.4956 36.5576 34.4956 36.1178V34.4943H21.507V36.1178C21.507 36.5576 21.3379 36.9465 20.9996 37.2848C20.6952 37.5892 20.3231 37.7414 19.8834 37.7414H18.2598C17.8201 37.7414 17.4311 37.5892 17.0929 37.2848C16.7885 36.9465 16.6363 36.5576 16.6363 36.1178V33.3781C16.0951 32.7692 15.8245 32.0589 15.8245 31.2471V28.8118C15.8245 27.8309 16.1965 27.0191 16.9407 26.3764H15.9259C15.6215 26.3764 15.4186 26.2242 15.3171 25.9198L15.0127 24.7021C14.9789 24.4992 15.0127 24.33 15.1142 24.1947C15.2495 24.0256 15.4186 23.9411 15.6215 23.9411H18.6657L19.5282 21.8101C19.9341 20.7277 20.6106 19.8652 21.5577 19.2225C22.5386 18.5799 23.6041 18.2585 24.7541 18.2585H31.2484C32.3984 18.2585 33.447 18.5799 34.3941 19.2225C35.375 19.8652 36.0684 20.7277 36.4743 21.8101L37.3368 23.9411H40.381ZM22.5217 23.0278L21.507 25.5646H34.4956L33.4808 23.0278C33.3117 22.5881 33.0073 22.2329 32.5676 21.9623C32.1617 21.6579 31.722 21.5057 31.2484 21.5057H24.7541C24.2806 21.5057 23.824 21.6579 23.3842 21.9623C22.9783 22.2329 22.6908 22.5881 22.5217 23.0278ZM19.8834 31.2471C19.9511 31.2471 20.0863 31.2471 20.2893 31.2471C20.5261 31.2471 20.6952 31.2471 20.7967 31.2471C20.8981 31.2471 21.0334 31.2471 21.2026 31.2471C21.4055 31.2133 21.5577 31.1795 21.6592 31.1457C21.7607 31.1118 21.8621 31.078 21.9636 31.0442C22.0989 30.9765 22.1835 30.892 22.2173 30.7905C22.2849 30.689 22.3188 30.5706 22.3188 30.4353C22.3188 29.928 22.0313 29.4037 21.4562 28.8625C20.8812 28.2875 20.3569 28 19.8834 28C19.4099 28 19.0209 28.1522 18.7165 28.4566C18.412 28.761 18.2598 29.15 18.2598 29.6236C18.2598 30.0971 18.412 30.4861 18.7165 30.7905C19.0209 31.0949 19.4099 31.2471 19.8834 31.2471ZM36.1191 31.2471C36.5927 31.2471 36.9817 31.0949 37.2861 30.7905C37.5905 30.4861 37.7427 30.0971 37.7427 29.6236C37.7427 29.15 37.5905 28.761 37.2861 28.4566C36.9817 28.1522 36.5927 28 36.1191 28C35.6456 28 35.1213 28.2875 34.5463 28.8625C33.9713 29.4037 33.6838 29.928 33.6838 30.4353C33.6838 30.5706 33.7007 30.689 33.7345 30.7905C33.8022 30.892 33.8867 30.9765 33.9882 31.0442C34.1235 31.078 34.2419 31.1118 34.3434 31.1457C34.4448 31.1795 34.5801 31.2133 34.7492 31.2471C34.9522 31.2471 35.1044 31.2471 35.2059 31.2471C35.3073 31.2471 35.4596 31.2471 35.6625 31.2471C35.8993 31.2471 36.0515 31.2471 36.1191 31.2471Z" fill="white"/>
<defs>
<linearGradient id="paint0_linear_2079_220" x1="56" y1="56" x2="-3.33786e-06" y2="3.33786e-06" gradientUnits="userSpaceOnUse">
<stop stop-color="#F28809"/>
<stop offset="1" stop-color="#FFDA63"/>
</linearGradient>
<linearGradient id="paint1_linear_2079_220" x1="1.93114" y1="11.9028" x2="20.3179" y2="17.5492" gradientUnits="userSpaceOnUse">
<stop stop-color="white"/>
<stop offset="1" stop-color="white" stop-opacity="0"/>
</linearGradient>
<linearGradient id="paint2_linear_2079_220" x1="44.3716" y1="53.6451" x2="41.2636" y2="39.2537" gradientUnits="userSpaceOnUse">
<stop stop-color="white"/>
<stop offset="1" stop-color="white" stop-opacity="0"/>
</linearGradient>
</defs>
</svg>
